<?xml version="1.0" standalone="no"?><!DOCTYPE svg PUBLIC "-//W3C//DTD SVG 1.1//EN" "http://www.w3.org/Graphics/SVG/1.1/DTD/svg11.dtd"><svg class="icon" width="200px" height="200.00px" viewBox="0 0 1024 1024" version="1.1" xmlns="http://www.w3.org/2000/svg"><path d="M483.823447 589.824a294.912 294.912 0 1 1 294.912-294.912 295.594667 295.594667 0 0 1-294.912 294.912z m0-521.557333a226.645333 226.645333 0 1 0 226.645333 226.645333A227.328 227.328 0 0 0 483.823447 68.266667z"  /><path d="M81.050114 1024a34.133333 34.133333 0 0 1-34.133334-32.085333v-29.354667a437.589333 437.589333 0 0 1 436.906667-441.002667 445.098667 445.098667 0 0 1 62.805333 4.778667 435.541333 435.541333 0 0 1 219.818667 99.669333 34.133333 34.133333 0 1 1-44.373333 51.882667A369.322667 369.322667 0 0 0 114.50078 955.733333v25.258667a34.133333 34.133333 0 0 1-32.085333 36.181333zM844.271447 1019.904a32.085333 32.085333 0 0 1-23.893333-10.24 49.834667 49.834667 0 0 0-25.258667-15.701333 26.624 26.624 0 0 0-13.653333 5.461333 75.093333 75.093333 0 0 0-11.605334 9.557333 32.085333 32.085333 0 0 1-23.210666 10.24h-12.288l-40.277334-22.528a30.72 30.72 0 0 1-10.922666-40.96 34.133333 34.133333 0 0 0 0-10.922666 30.037333 30.037333 0 0 0-30.037334-30.037334h-4.778666l-7.509334-4.778666a32.085333 32.085333 0 0 1-10.922666-19.114667 204.8 204.8 0 0 1-3.413334-33.450667 204.8 204.8 0 0 1 3.413334-32.768 32.085333 32.085333 0 0 1 10.922666-19.797333l6.144-4.778667h8.192a30.037333 30.037333 0 0 0 31.402667-30.037333 34.133333 34.133333 0 0 0 0-10.922667 30.037333 30.037333 0 0 1 10.24-36.181333l49.152-26.624h6.826667a32.085333 32.085333 0 0 1 23.210666 9.557333 48.469333 48.469333 0 0 0 24.576 15.018667 49.834667 49.834667 0 0 0 24.576-14.336 32.085333 32.085333 0 0 1 23.210667-9.557333h12.288l40.96 22.528a31.402667 31.402667 0 0 1 12.970667 35.498666v6.144a28.672 28.672 0 0 0 0 7.509334 30.037333 30.037333 0 0 0 30.037333 30.037333h6.826667l7.509333 4.096a30.72 30.72 0 0 1 12.288 19.797333 204.8 204.8 0 0 1 3.413333 33.450667 212.992 212.992 0 0 1-3.413333 33.450667 32.085333 32.085333 0 0 1-10.922667 19.114666l-6.144 4.778667h-8.192a30.037333 30.037333 0 0 0-31.402666 30.037333 35.498667 35.498667 0 0 0 0 10.922667 30.72 30.72 0 0 1-10.24 36.181333l-47.104 25.941334zM728.90078 974.165333z m68.266667-25.941333a81.237333 81.237333 0 0 1 50.517333 22.528l17.066667-9.557333a68.266667 68.266667 0 0 1 0-15.701334 75.776 75.776 0 0 1 58.709333-73.728 91.477333 91.477333 0 0 0 0-27.306666 75.776 75.776 0 0 1-58.709333-73.728 68.266667 68.266667 0 0 1 0-15.701334l-17.066667-9.557333a81.237333 81.237333 0 0 1-49.152 21.162667 81.92 81.92 0 0 1-49.834666-21.162667l-17.749334 10.24a68.266667 68.266667 0 0 1 0 15.701333 75.776 75.776 0 0 1-58.709333 73.728 115.370667 115.370667 0 0 0 0 13.653334 118.101333 118.101333 0 0 0 0 13.653333 75.776 75.776 0 0 1 56.661333 73.045333 68.266667 68.266667 0 0 1 0 15.701334l15.701334 8.874666 10.922666-8.192a68.266667 68.266667 0 0 1 41.642667-13.653333z m59.392-210.261333z m-114.688 0z"  /><path d="M797.167447 930.474667a72.362667 72.362667 0 1 1 68.266667-72.362667 72.362667 72.362667 0 0 1-68.266667 72.362667z m0-98.304a25.941333 25.941333 0 1 0 25.941333 25.941333 25.941333 25.941333 0 0 0-25.941333-25.941333z"  /></svg>